# xmcd
#
# Track frame offsets:
# 183
# 12370
# 25473
# 39425
# 50940
# 66170
# 79280
# 91728
# 105875
# 119388
# 134908
# 147935
# 161505
# 172633
# 183663
# 195963
#
# Disc length: 2758 seconds
#
#
# Revision: 0
# Processed by: cddbd v1.5.1PL0 Copyright (c) Steve Scherf et al.
# Submitted via: FreeRIP 2.60 
#
DISCID=d60ac410
DTITLE=Maria Dolores Pradera - Pradera - Acompañada por Los Gemelos
DYEAR=1900
DGENRE=Folklore
TTITLE0=Pa Todo El Ano
TTITLE1=Fuego Lento
TTITLE2=La Fior de la Canela
TTITLE3=Amarraditos
TTITLE4=Maria Antonia de la Ventera
TTITLE5=No Lo Llames
TTITLE6=Otro Amor Que Se Va
TTITLE7=Que Seas Feliz, Feliz, Feliz
TTITLE8=Ni En Defensa Propia
TTITLE9=Paso de Vencedores
TTITLE10=Caballo de Passo
TTITLE11=A lo Largo del Camino
TTITLE12=Cuando Llora Mi Guitarra
TTITLE13=Canta, Canta, Canta
TTITLE14=Gracia
TTITLE15=El Rosano de mi Madre
EXTD=
EXTT0=
EXTT1=
EXTT2=
EXTT3=
EXTT4=
EXTT5=
EXTT6=
EXTT7=
EXTT8=
EXTT9=
EXTT10=
EXTT11=
EXTT12=
EXTT13=
EXTT14=
EXTT15=
PLAYORDER=
